PathFileType	4	(X/Y/Z)	OpenSim_Sub10_CSStiffKnee_Accel.trc
DataRate	CameraRate	NumFrames	NumMarkers	Units	OrigDataRate	OrigDataStartFrame	OrigNumFrames
100	100	24	8	m	100	2044	8174
Frame#	Time	torso_imu_offset_imu	pelvis_imu_offset_imu	tibia_r_imu_offset_imu	femur_r_imu_offset_imu	tibia_l_imu_offset_imu	femur_l_imu_offset_imu	toes_r_imu_offset_imu	toes_l_imu_offset_imu
				X1	Y1	Z1	X2	Y2	Z2	X3	Y3	Z3	X4	Y4	Z4	X5	Y5	Z5	X6	Y6	Z6	X7	Y7	Z7	X8		Y8	Z8	

2044	20.43000000	7.98186737	-1.95128533	4.14981153	7.52726163	1.60976766	5.14715730	9.90426838	1.33221409	0.57731295	9.92892021	-2.37964827	-1.57444222	8.26765496	-13.96246040	-3.07509220	10.85124846	1.37347541	1.51000478	5.08695059	-1.54298106	8.28566245	0.41227791	6.73656234	21.04103943
2045	20.44000000	7.45265587	-2.04344585	4.17324750	7.17585773	1.84822118	4.62464175	8.41072461	0.06029766	1.19519765	8.52265638	-3.78228867	-0.67758321	5.82927590	-14.38643743	-1.90743937	11.73185813	1.71184271	0.94554123	5.10213969	-0.96204311	8.28944865	-4.11190757	2.12856585	17.86726884
2046	20.45000000	7.08136196	-2.25052957	4.16163201	6.88358821	2.15567181	4.13305987	8.03562258	-1.25316522	0.44614451	7.85216874	-4.54660597	0.28607772	3.03406425	-12.41637630	-0.75460416	11.71125214	1.71903769	0.66543035	4.86257385	-0.23776818	8.78199331	-4.45328441	1.34685717	17.09923425
2047	20.46000000	6.75074473	-2.38211715	4.18036094	6.75725138	2.62918631	3.80976149	9.35415566	-1.10576948	0.66304826	7.66940603	-4.62378830	0.97236930	1.18905300	-9.75073634	0.46412602	10.39573070	1.32317598	0.21161325	4.69771419	-0.46465244	8.76458739	-4.61043146	0.56967719	16.80302289
2048	20.47000000	6.50883988	-2.37444358	4.22507658	6.58156978	3.01275852	3.72638466	11.01102530	0.05762007	0.52262016	7.57281165	-3.89072211	0.98917799	-0.03519660	-7.46053841	0.82549689	8.92734767	0.29791013	-0.22203019	4.51343709	-1.13451370	8.62189027	-4.81435640	-0.99582580	15.44847861
2049	20.48000000	6.42394756	-2.26261678	4.31881617	6.19685232	3.34592914	3.74667674	11.07368960	1.04250158	-0.07522299	7.50742939	-2.73186042	0.49737631	-0.52258021	-5.52253100	0.58625018	8.39082464	-0.51863694	-0.35257653	4.91525024	-1.36182859	8.43641591	-4.39020685	-1.74868983	14.53651032
2050	20.49000000	6.40650747	-1.88339811	4.47088145	5.71726514	3.57695305	3.81786057	9.83261316	1.02863763	0.62082395	7.40670080	-1.52644389	0.05662725	0.39482118	-4.21070110	0.55765606	7.63199839	-1.22393126	-0.26939206	5.12676942	-1.08623514	8.29750319	-3.35896445	-1.55163443	13.88349330
2051	20.50000000	6.46666866	-1.32167040	4.58202745	5.21304910	3.61958636	3.87594403	8.81640981	-0.11403229	1.10817387	7.25271873	-0.45709052	-0.12430235	2.32094787	-3.50738106	0.58208544	7.21967279	-1.72100661	-0.13486134	5.02889260	-0.73207212	8.39761102	-2.12371773	-1.18399939	13.33555179
2052	20.51000000	6.54307311	-1.02434640	4.50668760	4.86540390	3.51579560	4.04880503	8.64608929	-1.27660943	0.98073160	7.23594971	0.35228258	-0.18499717	4.26597481	-2.96656208	0.54296015	6.90563548	-1.65682522	-0.01824688	4.83687464	-0.56788681	8.55574458	-0.79715203	-0.82691919	12.77816496
2053	20.52000000	6.39372467	-0.99374618	4.46603377	4.86245597	3.29529793	4.33386570	8.90186536	-1.66897045	1.12596811	7.77713153	0.82286679	-0.19589885	5.64007969	-2.38329860	0.55023889	6.77725838	-1.57492150	0.06639697	5.03705201	-0.69820906	8.41971290	0.52083702	-0.18877574	12.32494701
2054	20.53000000	6.07071044	-1.18223242	4.55053862	5.16400140	3.01588711	4.57357525	9.15000498	-1.80108769	1.04483091	8.56126036	0.92784634	-0.15585390	6.43916628	-1.66554682	0.87737999	6.75513020	-1.02815560	0.07583675	5.19426295	-0.91443189	8.26635308	1.65249259	0.58712450	11.89711077
2055	20.54000000	5.84568398	-1.47619903	4.63094454	5.60893016	2.69403945	4.78431889	9.28082668	-1.85954404	1.10969641	8.98958829	0.80319478	-0.09708310	7.10810401	-1.09869770	1.51544974	6.79711934	-0.71720881	0.15460878	5.04085451	-0.97533246	8.28350363	2.28617970	0.96824242	11.12951990
2056	20.55000000	5.79917579	-1.78918669	4.74377019	6.13587315	2.31010874	4.90883993	9.40132402	-1.82332399	1.20166635	8.91934698	0.61518588	0.02579098	7.83346585	-0.54486227	1.98759044	6.76909755	-0.27923004	0.28022552	5.03661615	-0.57801616	8.50620329	2.95279191	1.23304730	10.51768192
2057	20.56000000	6.06585496	-2.11622957	4.83750487	6.76292603	1.93868736	5.02536085	9.44995987	-1.71053823	1.01296453	8.58163605	0.34873800	0.26151771	8.61525583	0.11813551	2.30147073	7.05526979	0.23462959	0.27839557	5.19033318	-0.55830999	8.51349769	4.12252200	1.94232447	10.43758882
2058	20.57000000	6.60104015	-2.41082149	4.85632174	7.35209272	1.52827389	5.02025512	9.53847792	-1.57329970	0.79225701	8.52617403	-0.10920931	0.51809728	9.23959804	0.64865757	2.67382000	7.71501242	0.51818015	0.17743628	5.36293327	-0.62959231	8.41294736	4.65768682	2.65001046	10.30406107
2059	20.58000000	7.28412255	-2.46169866	4.96928356	7.85757917	1.06925247	4.97649842	9.76990516	-1.52030805	0.54428632	8.74174591	-0.63798404	0.41193607	9.68160054	0.75362997	3.08028929	8.16757491	0.89963743	-0.03070962	5.23825655	-0.67745085	8.46146229	4.85155903	2.73920555	10.34743566
2060	20.59000000	7.99436301	-2.43952129	5.08379100	8.18592211	0.72977499	4.98221878	9.95684413	-1.24842186	0.46005949	8.97456283	-1.12418854	-0.02428746	10.04290598	0.50848302	3.08603325	8.52290660	1.19213191	-0.29763764	5.11876616	-0.64967858	8.56972621	6.07384281	2.57354956	11.06784866
2061	20.60000000	8.47362235	-2.51163422	5.14690616	8.41330599	0.68205642	4.88163789	10.09586937	-0.69062771	0.44939690	9.17168206	-1.47776259	-0.32895975	10.46754502	0.06812795	2.87235077	8.83789945	1.45229414	-0.43301682	4.93753436	-0.62558732	8.80259877	7.75699380	2.77292574	12.08093892
2062	20.61000000	8.86807913	-2.59791072	5.24638493	8.54331632	0.87573353	4.73147502	10.24803955	0.03943370	0.49011854	9.15161632	-1.52148632	-0.36050553	10.81349089	-0.58757945	2.95641900	9.04937051	1.73238965	-0.49001685	5.12399791	-0.56651293	8.75967007	8.46674876	3.48776917	12.60046695
2063	20.62000000	9.11058191	-2.86261406	5.30412484	8.56429074	1.24680160	4.54322434	10.42404652	0.73596441	0.47827015	9.24721323	-1.31676344	-0.40296316	10.97056888	-1.35996397	2.97538184	9.21585550	1.85417202	-0.43848656	5.01524250	-0.58879413	8.77380044	8.47268693	3.99457543	12.62386791
2064	20.63000000	9.25084383	-2.97675185	5.37444005	8.67484784	1.70541951	4.34960443	10.40964363	1.17281310	0.33964179	9.52336023	-0.96815739	-0.66478808	11.13056537	-2.08804536	2.75057367	9.61696514	1.86995595	-0.34241214	4.96975180	-0.52462229	8.86802106	8.72973523	3.62305144	12.62980297
2065	20.64000000	9.45876570	-2.92163327	5.46790802	8.87905981	2.21438920	4.20151232	10.21590645	1.33272477	0.42731157	9.54968874	-0.49151376	-0.91215938	11.24242012	-2.67969699	2.45555959	10.21633366	1.64986849	-0.19121587	4.95111265	-0.41397798	8.94024132	9.06118708	2.86177232	12.63577669
2066	20.65000000	9.51586352	-2.92872221	5.50047992	9.05801245	2.65280604	4.12772366	10.12334836	1.38415968	0.36707037	9.30319070	0.05964060	-0.79380223	11.22497780	-3.08494639	2.14154748	9.97422645	1.96681689	-0.28822365	5.25208869	-0.47136951	8.70823590	9.21577867	2.24993108	12.55605206
2067	20.66000000	9.59649696	-2.84056689	5.49091930	9.08306656	3.05403399	4.03838046	10.19796669	1.35255649	0.11395560	9.11545415	0.61760149	-0.46778092	11.07615059	-3.24890325	1.77405038	10.24873468	1.85013472	-0.17308045	5.37637859	-0.47756462	8.65426043	9.26617998	1.62529048	12.47362724
